<?xml version="1.0" encoding="UTF-8" standalone="no"?><!DOCTYPE svg PUBLIC "-//W3C//DTD SVG 1.1//EN" "http://www.w3.org/Graphics/SVG/1.1/DTD/svg11.dtd"><svg width="100%" height="100%" viewBox="0 0 121 121" version="1.1" xmlns="http://www.w3.org/2000/svg" xmlns:xlink="http://www.w3.org/1999/xlink" xml:space="preserve" xmlns:serif="http://www.serif.com/" style="fill-rule:evenodd;clip-rule:evenodd;stroke-linejoin:round;stroke-miterlimit:2;"><rect id="Artboard1" x="0" y="0" width="120.565" height="120.565" style="fill:none;"/><rect x="0" y="0" width="120.565" height="120.565"/><rect x="0" y="22.606" width="120.565" height="75.353" style="fill:url(#_Linear1);"/><clipPath id="_clip2"><rect x="0" y="22.606" width="120.565" height="75.353"/></clipPath><g clip-path="url(#_clip2)"><path d="M-1.59,53.143c0,0 14.532,-4.157 18.284,-4.912c1.92,-0.386 10.612,-4.148 15,-4.002c1.034,0.034 15.492,-9.974 17.621,-9.92c6.386,0.164 19.891,18.554 25.902,19.256c1.308,0.152 3.038,1.013 3.789,1.122c0.839,0.122 21.817,-8.084 24.072,-7.977c7.298,0.348 19.715,10.062 19.715,10.062l1.764,13.634l-130.695,-1.003l4.548,-16.26Z" style="fill:#cae8d9;"/><path d="M-4.734,60.283c-0,-0 13.654,0.351 18.507,-0c1.262,-0.092 12.201,-4.019 13.464,-4.081c2.214,-0.109 10.574,3.676 13.64,4.081c5.321,0.701 6.038,1.144 11.125,1.144c2.581,-0 11.429,-1.794 13.651,-2.671c2.099,-0.829 8.039,-13.398 12.885,-13.391c2.512,0.004 50.637,22.598 55.141,23.38c4.514,0.784 -9.122,-4.576 -9.122,-4.576l3.859,24.356l-136.278,-9.314l3.128,-18.928Z" style="fill:#4cbc9d;"/><path d="M-6.138,73.569c8.617,0.897 21.414,-0.486 29.27,-0.729c8.861,-0.274 16.243,-4.845 23.892,-5.082c5.435,-0.168 10.87,-0.336 16.305,-0.505c5.468,-0.169 13.109,-3.849 18.611,-4.019c5.878,-0.182 7.947,2.771 15.78,1.349c9.15,-1.66 34.761,-4.244 47.099,-6.145l-6.228,44.121l-149.465,-6.205l4.736,-22.785Z" style="fill:#2a616c;"/><path d="M-3.344,83.262c0.855,-2.192 4.48,-3.117 6.679,-2.281c10.23,3.89 49.682,4.531 51.752,3.509c3.56,-1.759 8.245,2.631 8.245,2.631c-0,0 10.552,-1.688 14.034,-1.228c3.538,0.468 6.991,2.897 10.701,3.333c4.971,0.585 14.309,-2.337 19.122,0.176c3.691,1.927 9.555,1.996 13.157,4.21c3.863,2.374 4.211,18.42 4.211,18.42l-130.695,-1.93c0,0 0.923,-22.045 2.794,-26.84Z" style="fill:#12304c;"/></g><defs><linearGradient id="_Linear1" x1="0" y1="0" x2="1" y2="0" gradientUnits="userSpaceOnUse" gradientTransform="matrix(-0.192879,-36.7011,36.7011,-0.192879,56.966,59.307)"><stop offset="0" style="stop-color:#fff;stop-opacity:1"/><stop offset="1" style="stop-color:#cae8d9;stop-opacity:1"/></linearGradient></defs></svg>